Patient4_TMGait_0pt6_02_right_40_GRF.mot
version=1
nRows=26
nColumns=19
inDegrees=no
endheader
time	F1x	F1y	F1z	M1x	M1y	M1z	F2x	F2y	F2z	M2x	M2y	M2z	EC1x	EC1y	EC1z	EC2x	EC2y	EC2z
48.23	5.1102	737.019	69.5819	-279.437	-68.8023	765.422	-1.1556	4.8179	9.3969	-1.2494	-7.0557	2.775	-0.0592	0.0182	-0.0073	-0.0462	0.0165	0.9585
48.2422	5.3899	734.1359	69.7105	-278.5443	-68.3781	762.6295	-1.0267	4.061	6.4411	-0.60344	-4.7931	2.8842	-0.0592	0.0182	-0.0073	-0.0462	0.0165	0.9585
48.2544	5.9407	732.1036	69.6953	-277.8278	-67.6852	759.8953	-0.86765	3.4718	3.8637	-0.024949	-2.8045	3.0416	-0.0592	0.0182	-0.0073	-0.0462	0.0165	0.9585
48.2666	6.7411	731.1835	69.5461	-277.3847	-66.761	757.4938	-0.70479	3.0819	1.8561	0.44162	-1.2487	3.2231	-0.0592	0.0182	-0.0073	-0.0462	0.0165	0.9585
48.2789	7.7361	731.3502	69.2861	-277.2278	-65.6649	755.5179	-0.57242	2.8787	0.44249	0.78856	-0.14523	3.4131	-0.0592	0.0182	-0.0073	-0.0462	0.0165	0.9585
48.2911	8.8644	732.3664	68.9524	-277.2967	-64.462	753.8691	-0.47056	2.7949	-0.45833	1.0202	0.5649	3.5592	-0.0592	0.0182	-0.0073	-0.0462	0.0165	0.9585
48.3033	10.0458	733.8293	68.5811	-277.468	-63.2202	752.2776	-0.41207	2.7707	-0.96136	1.1519	0.96952	3.6414	-0.0592	0.0182	-0.0073	-0.0462	0.0165	0.9585
48.3155	11.2456	735.2822	68.2007	-277.5977	-61.986	750.387	-0.37677	2.6971	-1.1931	1.186	1.1644	3.5712	-0.0592	0.0182	-0.0073	-0.0462	0.0165	0.9585
48.3277	12.4714	736.3841	67.8155	-277.5767	-60.765	747.9323	-0.37292	2.4787	-1.251	1.1208	1.227	3.2754	-0.0592	0.0182	-0.0073	-0.0462	0.0165	0.9585
48.3399	13.7739	736.939	67.4368	-277.3499	-59.547	744.7415	-0.37011	1.9964	-1.2236	0.94034	1.2186	2.6321	-0.0592	0.0182	-0.0073	-0.0462	0.0165	0.9585
48.3521	15.2319	736.9634	67.0691	-276.9334	-58.302	740.8379	-0.37385	1.1431	-1.1595	0.6246	1.1725	1.5486	-0.0592	0.0182	-0.0073	-0.0462	0.0165	0.9585
48.3644	16.9462	736.6003	66.7492	-276.3867	-57.0234	736.3452	-0.35476	-0.19334	-1.0941	0.14734	1.1076	-0.089705	-0.0592	0.0182	-0.0073	-0.0462	0.0165	0.9585
48.3766	18.9828	736.0886	66.4969	-275.8035	-55.6981	731.492	-0.30501	-2.0582	-1.0322	-0.50165	1.0216	-2.3267	-0.0592	0.0182	-0.0073	-0.0462	0.0165	0.9585
48.3888	21.4264	735.7231	66.3473	-275.2966	-54.3254	726.5495	-0.19259	-4.4244	-0.95841	-1.3102	0.88789	-5.1387	-0.0592	0.0182	-0.0073	-0.0462	0.0165	0.9585
48.401	24.348	735.8011	66.3041	-274.9789	-52.8769	721.8091	-0.004792	-7.0901	-0.84631	-2.2106	0.67279	-8.2862	-0.0592	0.0182	-0.0073	-0.0462	0.0165	0.9585
48.4132	27.8185	736.5697	66.3622	-274.9432	-51.314	717.503	0.28068	-9.617	-0.6601	-3.0538	0.33074	-11.2563	-0.0592	0.0182	-0.0073	-0.0462	0.0165	0.9585
48.4254	31.8667	738.1606	66.5033	-275.2338	-49.5978	713.8032	0.6578	-11.2231	-0.35935	-3.5764	-0.17412	-13.1171	-0.0592	0.0182	-0.0073	-0.0462	0.0165	0.9585
48.4376	36.5052	740.4786	66.7115	-275.8129	-47.6996	710.6803	1.107	-10.7041	0.099656	-3.3737	-0.87424	-12.4439	-0.0592	0.0182	-0.0073	-0.0462	0.0165	0.9585
48.4499	41.6477	743.1494	66.9583	-276.5366	-45.6175	707.8739	1.5652	-6.3679	0.74205	-1.878	-1.7683	-7.2445	-0.0592	0.0182	-0.0073	-0.0462	0.0165	0.9585
48.4621	47.1532	745.447	67.1803	-277.1323	-43.3491	704.7869	1.9105	3.9206	1.5753	1.6267	-2.8115	4.9986	-0.0592	0.0182	-0.0073	-0.0462	0.0165	0.9585
48.4743	52.7807	746.3095	67.269	-277.2068	-40.8954	700.5373	1.9599	22.575	2.5444	7.9466	-3.8646	27.1268	-0.0592	0.0182	-0.0073	-0.0462	0.0165	0.9585
48.4865	58.2193	744.3523	67.0559	-276.2609	-38.2351	693.9399	1.441	51.8972	3.5182	17.8441	-4.6699	61.8458	-0.0592	0.0182	-0.0073	-0.0462	0.0165	0.9585
48.4987	63.1275	737.9742	66.3122	-273.7231	-35.3085	683.631	0.0042846	93.3655	4.2458	31.8003	-4.8079	110.8758	-0.0592	0.0182	-0.0073	-0.0462	0.0165	0.9585
48.5109	67.1915	725.469	64.7741	-268.9842	-32.017	668.1511	-2.7673	146.5847	4.3214	49.6563	-3.6591	173.7209	-0.0592	0.0182	-0.0073	-0.0462	0.0165	0.9585
48.5231	70.1105	705.2154	62.2019	-261.461	-28.2784	646.1205	-7.4439	207.9987	3.1938	70.1807	-0.41191	246.1271	-0.0592	0.0182	-0.0073	-0.0462	0.0165	0.9585
48.5354	71.6162	675.9945	58.4529	-250.7078	-24.0855	616.5162	-14.1415	270.437	0.32275	90.9358	5.5184	319.5861	-0.0592	0.0182	-0.0073	-0.0462	0.0165	0.9585
